<?xml version="1.0" encoding="UTF-8" standalone="no"?>
<svg width="132.644mm" height="133.703mm"
 viewBox="0 0 376 379"
 xmlns="http://www.w3.org/2000/svg" xmlns:xlink="http://www.w3.org/1999/xlink"  version="1.2" baseProfile="tiny">
<title>Qt Svg Document</title>
<desc>Generated with Qt</desc>
<defs>
</defs>
<g fill="none" stroke="black" stroke-width="1" fill-rule="evenodd" stroke-linecap="square" stroke-linejoin="bevel" >

<g fill="none" stroke="#000000" stroke-opacity="1" stroke-width="1" stroke-linecap="square" stroke-linejoin="bevel" transform="matrix(1,0,0,1,0,0)"
font-family="Oxygen-Sans" font-size="10" font-weight="400" font-style="normal" 
>
</g>

<g fill="none" stroke="#000000" stroke-opacity="1" stroke-width="1" stroke-linecap="square" stroke-linejoin="bevel" transform="matrix(1,0,0,1,0,0)"
font-family="Oxygen-Sans" font-size="10" font-weight="400" font-style="normal" 
>
</g>

<g fill="none" stroke="#000000" stroke-opacity="1" stroke-width="1" stroke-linecap="square" stroke-linejoin="bevel" transform="matrix(0.994709,0,0,0.994709,0.994709,303.386)"
font-family="Oxygen-Sans" font-size="10" font-weight="400" font-style="normal" 
>
</g>

<g fill="#ff0000" fill-opacity="1" stroke="#ff0000" stroke-opacity="1" stroke-width="1" stroke-linecap="square" stroke-linejoin="bevel" transform="matrix(0.994709,0,0,0.994709,0.994709,303.386)"
font-family="Oxygen-Sans" font-size="10" font-weight="400" font-style="normal" 
>
<path vector-effect="non-scaling-stroke" fill-rule="evenodd" d="M0,0 L376,0 L376,75 L0,75 L0,0"/>
<path vector-effect="non-scaling-stroke" fill-rule="evenodd" d="M359,5 L370,5 L370,18 L359,18 L359,5"/>
<path vector-effect="non-scaling-stroke" fill-rule="evenodd" d="M357,7 L359,7 L359,9 L357,9 L357,7"/>
<path vector-effect="non-scaling-stroke" fill-rule="evenodd" d="M357,11 L359,11 L359,13 L357,13 L357,11"/>
</g>

<g fill="#ff0000" fill-opacity="1" stroke="#000000" stroke-opacity="1" stroke-width="1" stroke-linecap="square" stroke-linejoin="bevel" transform="matrix(0.994709,0,0,0.994709,0.994709,303.386)"
font-family="Oxygen-Sans" font-size="10" font-weight="700" font-style="normal" 
>
<text fill="#000000" fill-opacity="1" stroke="none" xml:space="preserve" x="177" y="42" font-family="Oxygen-Sans" font-size="10" font-weight="700" font-style="normal" 
 >Core</text>
</g>

<g fill="none" stroke="#000000" stroke-opacity="1" stroke-width="1" stroke-linecap="square" stroke-linejoin="bevel" transform="matrix(0.994709,0,0,0.994709,0.994709,303.386)"
font-family="Oxygen-Sans" font-size="10" font-weight="400" font-style="normal" 
>
</g>

<g fill="none" stroke="#000000" stroke-opacity="1" stroke-width="1" stroke-linecap="square" stroke-linejoin="bevel" transform="matrix(0.994709,0,0,0.994709,0.994709,201.926)"
font-family="Oxygen-Sans" font-size="10" font-weight="400" font-style="normal" 
>
</g>

<g fill="#ffff00" fill-opacity="1" stroke="#ff0000" stroke-opacity="1" stroke-width="1" stroke-linecap="square" stroke-linejoin="bevel" transform="matrix(0.994709,0,0,0.994709,0.994709,201.926)"
font-family="Oxygen-Sans" font-size="10" font-weight="400" font-style="normal" 
>
<path vector-effect="non-scaling-stroke" fill-rule="evenodd" d="M0,0 L100,0 L100,68 L0,68 L0,0"/>
<path vector-effect="non-scaling-stroke" fill-rule="evenodd" d="M83,5 L94,5 L94,18 L83,18 L83,5"/>
<path vector-effect="non-scaling-stroke" fill-rule="evenodd" d="M81,7 L83,7 L83,9 L81,9 L81,7"/>
<path vector-effect="non-scaling-stroke" fill-rule="evenodd" d="M81,11 L83,11 L83,13 L81,13 L81,11"/>
</g>

<g fill="#ffff00" fill-opacity="1" stroke="#000000" stroke-opacity="1" stroke-width="1" stroke-linecap="square" stroke-linejoin="bevel" transform="matrix(0.994709,0,0,0.994709,0.994709,201.926)"
font-family="Oxygen-Sans" font-size="10" font-weight="700" font-style="normal" 
>
<text fill="#000000" fill-opacity="1" stroke="none" xml:space="preserve" x="39" y="39" font-family="Oxygen-Sans" font-size="10" font-weight="700" font-style="normal" 
 >User</text>
</g>

<g fill="none" stroke="#000000" stroke-opacity="1" stroke-width="1" stroke-linecap="square" stroke-linejoin="bevel" transform="matrix(0.994709,0,0,0.994709,0.994709,201.926)"
font-family="Oxygen-Sans" font-size="10" font-weight="400" font-style="normal" 
>
</g>

<g fill="none" stroke="#000000" stroke-opacity="1" stroke-width="1" stroke-linecap="square" stroke-linejoin="bevel" transform="matrix(0.994709,0,0,0.994709,0.994709,98.4762)"
font-family="Oxygen-Sans" font-size="10" font-weight="400" font-style="normal" 
>
</g>

<g fill="#08ff00" fill-opacity="1" stroke="#ff0000" stroke-opacity="1" stroke-width="1" stroke-linecap="square" stroke-linejoin="bevel" transform="matrix(0.994709,0,0,0.994709,0.994709,98.4762)"
font-family="Oxygen-Sans" font-size="10" font-weight="400" font-style="normal" 
>
<path vector-effect="non-scaling-stroke" fill-rule="evenodd" d="M0,0 L100,0 L100,68 L0,68 L0,0"/>
<path vector-effect="non-scaling-stroke" fill-rule="evenodd" d="M83,5 L94,5 L94,18 L83,18 L83,5"/>
<path vector-effect="non-scaling-stroke" fill-rule="evenodd" d="M81,7 L83,7 L83,9 L81,9 L81,7"/>
<path vector-effect="non-scaling-stroke" fill-rule="evenodd" d="M81,11 L83,11 L83,13 L81,13 L81,11"/>
</g>

<g fill="#08ff00" fill-opacity="1" stroke="#000000" stroke-opacity="1" stroke-width="1" stroke-linecap="square" stroke-linejoin="bevel" transform="matrix(0.994709,0,0,0.994709,0.994709,98.4762)"
font-family="Oxygen-Sans" font-size="10" font-weight="700" font-style="normal" 
>
<text fill="#000000" fill-opacity="1" stroke="none" xml:space="preserve" x="39" y="39" font-family="Oxygen-Sans" font-size="10" font-weight="700" font-style="normal" 
 >saas</text>
</g>

<g fill="none" stroke="#000000" stroke-opacity="1" stroke-width="1" stroke-linecap="square" stroke-linejoin="bevel" transform="matrix(0.994709,0,0,0.994709,0.994709,98.4762)"
font-family="Oxygen-Sans" font-size="10" font-weight="400" font-style="normal" 
>
</g>

<g fill="none" stroke="#000000" stroke-opacity="1" stroke-width="1" stroke-linecap="square" stroke-linejoin="bevel" transform="matrix(0.994709,0,0,0.994709,126.328,98.4762)"
font-family="Oxygen-Sans" font-size="10" font-weight="400" font-style="normal" 
>
</g>

<g fill="#08ff00" fill-opacity="1" stroke="#ff0000" stroke-opacity="1" stroke-width="1" stroke-linecap="square" stroke-linejoin="bevel" transform="matrix(0.994709,0,0,0.994709,126.328,98.4762)"
font-family="Oxygen-Sans" font-size="10" font-weight="400" font-style="normal" 
>
<path vector-effect="non-scaling-stroke" fill-rule="evenodd" d="M0,0 L100,0 L100,68 L0,68 L0,0"/>
<path vector-effect="non-scaling-stroke" fill-rule="evenodd" d="M83,5 L94,5 L94,18 L83,18 L83,5"/>
<path vector-effect="non-scaling-stroke" fill-rule="evenodd" d="M81,7 L83,7 L83,9 L81,9 L81,7"/>
<path vector-effect="non-scaling-stroke" fill-rule="evenodd" d="M81,11 L83,11 L83,13 L81,13 L81,11"/>
</g>

<g fill="#08ff00" fill-opacity="1" stroke="#000000" stroke-opacity="1" stroke-width="1" stroke-linecap="square" stroke-linejoin="bevel" transform="matrix(0.994709,0,0,0.994709,126.328,98.4762)"
font-family="Oxygen-Sans" font-size="10" font-weight="700" font-style="normal" 
>
<text fill="#000000" fill-opacity="1" stroke="none" xml:space="preserve" x="42.5" y="39" font-family="Oxygen-Sans" font-size="10" font-weight="700" font-style="normal" 
 >km</text>
</g>

<g fill="none" stroke="#000000" stroke-opacity="1" stroke-width="1" stroke-linecap="square" stroke-linejoin="bevel" transform="matrix(0.994709,0,0,0.994709,126.328,98.4762)"
font-family="Oxygen-Sans" font-size="10" font-weight="400" font-style="normal" 
>
</g>

<g fill="none" stroke="#000000" stroke-opacity="1" stroke-width="1" stroke-linecap="square" stroke-linejoin="bevel" transform="matrix(0.994709,0,0,0.994709,252.656,97.4815)"
font-family="Oxygen-Sans" font-size="10" font-weight="400" font-style="normal" 
>
</g>

<g fill="#08ff00" fill-opacity="1" stroke="#ff0000" stroke-opacity="1" stroke-width="1" stroke-linecap="square" stroke-linejoin="bevel" transform="matrix(0.994709,0,0,0.994709,252.656,97.4815)"
font-family="Oxygen-Sans" font-size="10" font-weight="400" font-style="normal" 
>
<path vector-effect="non-scaling-stroke" fill-rule="evenodd" d="M0,0 L100,0 L100,68 L0,68 L0,0"/>
<path vector-effect="non-scaling-stroke" fill-rule="evenodd" d="M83,5 L94,5 L94,18 L83,18 L83,5"/>
<path vector-effect="non-scaling-stroke" fill-rule="evenodd" d="M81,7 L83,7 L83,9 L81,9 L81,7"/>
<path vector-effect="non-scaling-stroke" fill-rule="evenodd" d="M81,11 L83,11 L83,13 L81,13 L81,11"/>
</g>

<g fill="#08ff00" fill-opacity="1" stroke="#000000" stroke-opacity="1" stroke-width="1" stroke-linecap="square" stroke-linejoin="bevel" transform="matrix(0.994709,0,0,0.994709,252.656,97.4815)"
font-family="Oxygen-Sans" font-size="10" font-weight="700" font-style="normal" 
>
<text fill="#000000" fill-opacity="1" stroke="none" xml:space="preserve" x="37" y="39" font-family="Oxygen-Sans" font-size="10" font-weight="700" font-style="normal" 
 >inbox</text>
</g>

<g fill="none" stroke="#000000" stroke-opacity="1" stroke-width="1" stroke-linecap="square" stroke-linejoin="bevel" transform="matrix(0.994709,0,0,0.994709,252.656,97.4815)"
font-family="Oxygen-Sans" font-size="10" font-weight="400" font-style="normal" 
>
</g>

<g fill="none" stroke="#000000" stroke-opacity="1" stroke-width="1" stroke-linecap="square" stroke-linejoin="bevel" transform="matrix(0.994709,0,0,0.994709,0.994709,0.994709)"
font-family="Oxygen-Sans" font-size="10" font-weight="400" font-style="normal" 
>
</g>

<g fill="#00fbff" fill-opacity="1" stroke="#ff0000" stroke-opacity="1" stroke-width="1" stroke-linecap="square" stroke-linejoin="bevel" transform="matrix(0.994709,0,0,0.994709,0.994709,0.994709)"
font-family="Oxygen-Sans" font-size="10" font-weight="400" font-style="normal" 
>
<path vector-effect="non-scaling-stroke" fill-rule="evenodd" d="M0,0 L100,0 L100,68 L0,68 L0,0"/>
<path vector-effect="non-scaling-stroke" fill-rule="evenodd" d="M83,5 L94,5 L94,18 L83,18 L83,5"/>
<path vector-effect="non-scaling-stroke" fill-rule="evenodd" d="M81,7 L83,7 L83,9 L81,9 L81,7"/>
<path vector-effect="non-scaling-stroke" fill-rule="evenodd" d="M81,11 L83,11 L83,13 L81,13 L81,11"/>
</g>

<g fill="#00fbff" fill-opacity="1" stroke="#000000" stroke-opacity="1" stroke-width="1" stroke-linecap="square" stroke-linejoin="bevel" transform="matrix(0.994709,0,0,0.994709,0.994709,0.994709)"
font-family="Oxygen-Sans" font-size="10" font-weight="700" font-style="normal" 
>
<text fill="#000000" fill-opacity="1" stroke="none" xml:space="preserve" x="39" y="39" font-family="Oxygen-Sans" font-size="10" font-weight="700" font-style="normal" 
 >Wiki</text>
</g>

<g fill="none" stroke="#000000" stroke-opacity="1" stroke-width="1" stroke-linecap="square" stroke-linejoin="bevel" transform="matrix(0.994709,0,0,0.994709,0.994709,0.994709)"
font-family="Oxygen-Sans" font-size="10" font-weight="400" font-style="normal" 
>
</g>

<g fill="none" stroke="#000000" stroke-opacity="1" stroke-width="1" stroke-linecap="square" stroke-linejoin="bevel" transform="matrix(0.994709,0,0,0.994709,126.328,0.994709)"
font-family="Oxygen-Sans" font-size="10" font-weight="400" font-style="normal" 
>
</g>

<g fill="#00fbff" fill-opacity="1" stroke="#ff0000" stroke-opacity="1" stroke-width="1" stroke-linecap="square" stroke-linejoin="bevel" transform="matrix(0.994709,0,0,0.994709,126.328,0.994709)"
font-family="Oxygen-Sans" font-size="10" font-weight="400" font-style="normal" 
>
<path vector-effect="non-scaling-stroke" fill-rule="evenodd" d="M0,0 L100,0 L100,68 L0,68 L0,0"/>
<path vector-effect="non-scaling-stroke" fill-rule="evenodd" d="M83,5 L94,5 L94,18 L83,18 L83,5"/>
<path vector-effect="non-scaling-stroke" fill-rule="evenodd" d="M81,7 L83,7 L83,9 L81,9 L81,7"/>
<path vector-effect="non-scaling-stroke" fill-rule="evenodd" d="M81,11 L83,11 L83,13 L81,13 L81,11"/>
</g>

<g fill="#00fbff" fill-opacity="1" stroke="#000000" stroke-opacity="1" stroke-width="1" stroke-linecap="square" stroke-linejoin="bevel" transform="matrix(0.994709,0,0,0.994709,126.328,0.994709)"
font-family="Oxygen-Sans" font-size="10" font-weight="700" font-style="normal" 
>
<text fill="#000000" fill-opacity="1" stroke="none" xml:space="preserve" x="38" y="39" font-family="Oxygen-Sans" font-size="10" font-weight="700" font-style="normal" 
 >Todo</text>
</g>

<g fill="none" stroke="#000000" stroke-opacity="1" stroke-width="1" stroke-linecap="square" stroke-linejoin="bevel" transform="matrix(0.994709,0,0,0.994709,126.328,0.994709)"
font-family="Oxygen-Sans" font-size="10" font-weight="400" font-style="normal" 
>
</g>

<g fill="none" stroke="#000000" stroke-opacity="1" stroke-width="1" stroke-linecap="square" stroke-linejoin="bevel" transform="matrix(1,0,0,1,0,0)"
font-family="Oxygen-Sans" font-size="10" font-weight="400" font-style="normal" 
>
</g>
</g>
</svg>
