<?xml version="1.0" encoding="UTF-8" standalone="no"?>
<!-- Creator: CorelDRAW -->
<svg
   xmlns:dc="http://purl.org/dc/elements/1.1/"
   xmlns:cc="http://creativecommons.org/ns#"
   xmlns:rdf="http://www.w3.org/1999/02/22-rdf-syntax-ns#"
   xmlns:svg="http://www.w3.org/2000/svg"
   xmlns="http://www.w3.org/2000/svg"
   xmlns:sodipodi="http://sodipodi.sourceforge.net/DTD/sodipodi-0.dtd"
   xmlns:inkscape="http://www.inkscape.org/namespaces/inkscape"
   xml:space="preserve"
   width="104.761mm"
   height="230.729mm"
   style="shape-rendering:geometricPrecision; text-rendering:geometricPrecision; image-rendering:optimizeQuality; fill-rule:evenodd; clip-rule:evenodd"
   viewBox="0 0 86.7041 190.959"
   id="svg2475"
   sodipodi:version="0.32"
   inkscape:version="0.46"
   sodipodi:docname="pluf2.svg"
   inkscape:output_extension="org.inkscape.output.svg.inkscape"><metadata
   id="metadata2523"><rdf:RDF><cc:Work
       rdf:about=""><dc:format>image/svg+xml</dc:format><dc:type
         rdf:resource="http://purl.org/dc/dcmitype/StillImage" /></cc:Work></rdf:RDF></metadata><sodipodi:namedview
   inkscape:cy="577.84947"
   inkscape:cx="214.38775"
   inkscape:zoom="1"
   inkscape:window-height="706"
   inkscape:window-width="642"
   inkscape:pageshadow="2"
   inkscape:pageopacity="0.0"
   guidetolerance="10.0"
   gridtolerance="10.0"
   objecttolerance="10.0"
   borderopacity="1.0"
   bordercolor="#666666"
   pagecolor="#ffffff"
   id="base"
   showgrid="false"
   inkscape:window-x="313"
   inkscape:window-y="105"
   inkscape:current-layer="svg2475" />
 <defs
   id="defs2477"><inkscape:perspective
   sodipodi:type="inkscape:persp3d"
   inkscape:vp_x="0 : 408.77185 : 1"
   inkscape:vp_y="0 : 1000 : 0"
   inkscape:vp_z="371.20041 : 408.77185 : 1"
   inkscape:persp3d-origin="185.6002 : 272.51457 : 1"
   id="perspective2525" />
  <style
   type="text/css"
   id="style2479">
   
    .str0 {stroke:#1F1A17;stroke-width:0.968332}
    .fil4 {fill:none}
    .fil2 {fill:#1F1A17}
    .fil5 {fill:white}
    .fil1 {fill:#1F1A17;fill-rule:nonzero}
    .fil0 {fill:#DA251D;fill-rule:nonzero}
    .fil3 {fill:white;fill-rule:nonzero}
   
  </style>
 
  <metadata
   id="CorelCorpID_0Corel-Layer" />
  
  
  
  
  
  
 
   
   
   
  
    
    
    
   
   
   
   
  
    
    
    
   
   
   
   
   
  
    
    
    
   </defs>
 <path
   id="_42982848"
   class="fil2"
   d="M 6.6244512,119.235 L 78.72105,119.235 C 80.82299,119.235 82.54265,120.95557 82.54265,123.0566 L 82.54265,143.0386 C 82.54265,145.13963 80.82208,146.86012 78.72105,146.86012 L 6.6244512,146.86012 C 4.5234212,146.86012 2.8029312,145.14046 2.8029312,143.0386 L 2.8029312,123.0566 C 2.8029312,120.95466 4.5225912,119.235 6.6244512,119.235 L 6.6244512,119.235 z"
   style="fill:#1f1a17" /><path
   style="fill:#da251d;fill-rule:nonzero"
   d="M 21.938168,123.708 C 22.139283,123.67134 22.363158,123.64394 22.609958,123.62565 C 22.856758,123.60736 23.080633,123.59826 23.281748,123.59826 C 23.482863,123.59826 23.706821,123.60736 23.953621,123.62565 C 24.200339,123.64394 24.424296,123.67134 24.625411,123.708 L 24.625411,139.5573 C 24.625411,140.06919 24.671096,140.47134 24.76255,140.76382 C 24.853921,141.05631 24.977321,141.28026 25.132668,141.43561 C 25.288098,141.59104 25.470922,141.69151 25.681058,141.73728 C 25.89136,141.78297 26.115235,141.80581 26.352931,141.80581 C 26.517382,141.80581 26.704841,141.79671 26.91506,141.77842 C 27.125279,141.76013 27.303551,141.73265 27.449794,141.69615 C 27.614328,142.33599 27.696594,143.03063 27.696594,143.78013 C 27.440607,143.8715 27.12983,143.93101 26.764182,143.9584 C 26.398616,143.9858 26.060445,143.99953 25.749672,143.99953 C 25.21949,143.99953 24.725972,143.93548 24.268872,143.80752 C 23.811935,143.67957 23.409705,143.46935 23.062432,143.17687 C 22.715074,142.88438 22.440879,142.49134 22.239764,141.99774 C 22.038649,141.50422 21.938174,140.89177 21.938174,140.16056 L 21.938174,123.70806 L 21.938168,123.708 z"
   class="fil0"
   id="_42968680" /><path
   style="fill:#da251d;fill-rule:nonzero"
   d="M 13.88243,129.741 C 14.083545,129.70442 14.307668,129.67686 14.554303,129.65873 C 14.800855,129.64061 15.024978,129.63134 15.226093,129.63134 C 15.427125,129.63134 15.651083,129.64044 15.897883,129.65873 C 16.144683,129.67702 16.368641,129.70442 16.569673,129.741 L 16.566694,139.55773 C 16.566528,140.06921 16.612544,140.47193 16.70375,140.76425 C 16.794955,141.05657 16.918604,141.28069 17.073951,141.43604 C 17.229381,141.59147 17.412122,141.69194 17.622341,141.73771 C 17.83256,141.7834 18.056518,141.80624 18.294131,141.80624 C 18.458665,141.80624 18.646041,141.79714 18.856343,141.77885 C 19.066479,141.76056 19.244752,141.73308 19.390994,141.69658 C 19.555528,142.33642 19.637794,143.03106 19.637794,143.78056 C 19.38189,143.87193 19.071113,143.93144 18.705464,143.95883 C 18.339815,143.98623 18.001727,143.99997 17.690954,143.99997 C 17.160772,143.99997 16.667174,143.93591 16.210154,143.80795 C 15.753135,143.68 15.350987,143.46978 15.003634,143.1773 C 14.656276,142.88481 14.382164,142.49177 14.181049,141.99817 C 13.979934,141.50465 13.879211,140.8922 13.879376,140.16099 L 13.882438,129.74099 L 13.88243,129.741 z"
   class="fil0"
   id="_42968472" /><path
   style="fill:#da251d;fill-rule:nonzero"
   d="M 5.823797,135.771 C 6.024912,135.73442 6.249201,135.70669 6.49567,135.68873 C 6.742139,135.67077 6.966345,135.66134 7.16746,135.66134 C 7.368575,135.66134 7.59245,135.67044 7.83925,135.68873 C 8.08605,135.70702 8.310008,135.73442 8.511123,135.771 L 8.507978,139.55734 C 8.507647,140.06857 8.553994,140.47171 8.645117,140.76386 C 8.736157,141.05602 8.859888,141.2803 9.015235,141.43565 C 9.170665,141.59108 9.353489,141.69155 9.563708,141.73732 C 9.773927,141.78301 9.997885,141.80585 10.235498,141.80585 C 10.400032,141.80585 10.587408,141.79675 10.797627,141.77846 C 11.007846,141.76017 11.186118,141.73269 11.332361,141.69619 C 11.496894,142.33603 11.57916,143.03067 11.57916,143.78017 C 11.323257,143.87154 11.01248,143.93105 10.646831,143.95844 C 10.281182,143.98584 9.943011,143.99957 9.632231,143.99957 C 9.102049,143.99957 8.608531,143.93552 8.151511,143.80756 C 7.694492,143.67961 7.292344,143.46939 6.944991,143.17691 C 6.597633,142.88442 6.323438,142.49138 6.122323,141.99778 C 5.921291,141.50426 5.820237,140.89181 5.820733,140.1606 L 5.823795,135.771 L 5.823797,135.771 z"
   class="fil0"
   id="_42966968" /><path
   id="_42965344"
   class="fil3"
   d="M 31.52483,123.927 C 31.799108,123.89042 32.12354,123.85384 32.498293,123.81734 C 32.873046,123.78076 33.266089,123.74873 33.677423,123.72133 C 34.088757,123.69386 34.500008,123.67101 34.911423,123.65272 C 35.322674,123.63451 35.72027,123.62533 36.104213,123.62533 C 37.109623,123.62533 38.064793,123.72589 38.969733,123.927 C 39.874585,124.12812 40.669773,124.47539 41.355303,124.96899 C 42.040832,125.46251 42.584673,126.11609 42.986903,126.92957 C 43.38905,127.74305 43.590083,128.7622 43.590083,129.98702 C 43.590083,131.26671 43.375312,132.33154 42.945687,133.18152 C 42.516145,134.03167 41.949464,134.71256 41.245647,135.22445 C 40.541827,135.73626 39.742087,136.09736 38.846257,136.30757 C 37.950592,136.51779 37.036467,136.6229 36.104227,136.6229 C 35.756869,136.6229 35.450645,136.61827 35.185553,136.60924 C 34.920545,136.60006 34.632611,136.57721 34.321834,136.54063 L 34.321834,143.67012 C 33.883105,143.72491 33.416982,143.75239 32.923384,143.75239 C 32.703978,143.75239 32.470917,143.74776 32.224116,143.73865 C 31.977398,143.72955 31.744254,143.70662 31.524848,143.67012 L 31.524848,123.92702 L 31.52483,123.927 z M 34.32182,134.1002 C 34.614306,134.13678 34.870293,134.16418 35.089616,134.18247 C 35.309022,134.20076 35.628902,134.20986 36.04934,134.20986 C 36.616021,134.20986 37.17815,134.15044 37.73573,134.03167 C 38.293307,133.91282 38.79146,133.69805 39.23019,133.38728 C 39.668919,133.0765 40.020829,132.65143 40.28592,132.11214 C 40.550928,131.57285 40.683515,130.87367 40.683515,130.0145 C 40.683515,129.26499 40.569219,128.63425 40.340709,128.12236 C 40.112199,127.61055 39.796871,127.19921 39.394723,126.88844 C 38.992576,126.57766 38.508079,126.35834 37.941393,126.2303 C 37.374712,126.10235 36.762343,126.03837 36.104213,126.03837 C 35.427788,126.03837 34.833633,126.06585 34.321823,126.12064 L 34.321823,134.10019 L 34.32182,134.1002 z M 46.77102,123.5705 C 46.972135,123.53392 47.19601,123.50652 47.44281,123.48823 C 47.68961,123.46994 47.913485,123.46084 48.1146,123.46084 C 48.315715,123.46084 48.539673,123.46994 48.78639,123.48823 C 49.03319,123.50652 49.257148,123.53392 49.458263,123.5705 L 49.458263,139.4198 C 49.458263,139.93169 49.503948,140.33384 49.595402,140.62632 C 49.686773,140.91881 49.810173,141.14276 49.96552,141.29811 C 50.12095,141.45354 50.303774,141.5541 50.51391,141.59978 C 50.724212,141.64547 50.948087,141.66831 51.185783,141.66831 C 51.350234,141.66831 51.537693,141.65921 51.747912,141.64092 C 51.958131,141.62263 52.136403,141.59523 52.282646,141.55865 C 52.447097,142.19849 52.529446,142.89313 52.529446,143.64263 C 52.273459,143.73408 51.962682,143.79351 51.597034,143.8209 C 51.231468,143.8483 50.893297,143.86203 50.582524,143.86203 C 50.052342,143.86203 49.558824,143.79806 49.101724,143.67011 C 48.644787,143.54207 48.242557,143.33185 47.895284,143.03937 C 47.547926,142.74688 47.273731,142.35384 47.072616,141.86032 C 46.871501,141.36672 46.771026,140.75435 46.771026,140.02306 L 46.771026,123.57056 L 46.77102,123.5705 z M 54.83275,129.60304 C 55.033782,129.56654 55.262375,129.53906 55.518279,129.52086 C 55.774183,129.50257 55.993589,129.49338 56.176413,129.49338 C 56.377445,129.49338 56.605955,129.50257 56.861859,129.52086 C 57.117846,129.53906 57.346356,129.56654 57.547388,129.60304 L 57.547388,137.30839 C 57.547388,138.18585 57.629738,138.91251 57.794188,139.48829 C 57.958722,140.06416 58.205522,140.51663 58.534589,140.84569 C 58.863656,141.17476 59.265804,141.40327 59.741109,141.53122 C 60.216336,141.65917 60.764809,141.72315 61.386359,141.72315 C 62.318689,141.72315 63.113879,141.62259 63.771929,141.42156 L 63.771929,129.60306 C 63.973044,129.56656 64.197002,129.53908 64.443802,129.52087 C 64.690602,129.50258 64.914477,129.4934 65.115592,129.4934 C 65.316707,129.4934 65.540665,129.50258 65.787465,129.52087 C 66.034183,129.53908 66.25814,129.56656 66.459173,129.60306 L 66.459173,143.23136 C 65.819412,143.4141 65.056173,143.58774 64.169603,143.75235 C 63.282959,143.9168 62.364363,143.99915 61.413743,143.99915 C 60.517995,143.99915 59.672563,143.92136 58.877293,143.76601 C 58.082102,143.61058 57.382913,143.29533 56.779573,142.82002 C 56.176393,142.34471 55.701083,141.67747 55.353723,140.8183 C 55.006365,139.95905 54.832727,138.82569 54.832727,137.41805 L 54.832727,129.60303 L 54.83275,129.60304 z M 71.69675,131.74189 L 69.39328,131.74189 C 69.3202,131.44949 69.283619,131.09294 69.283619,130.6725 C 69.283619,130.27035 69.3202,129.91381 69.39328,129.60303 L 71.69675,129.60303 L 71.69675,128.61591 C 71.69675,126.87929 72.130844,125.55846 72.9992,124.65361 C 73.867553,123.74868 75.13342,123.29621 76.79705,123.29621 C 77.254069,123.29621 77.656217,123.31905 78.00357,123.36482 C 78.350845,123.41051 78.679912,123.47903 78.990689,123.57049 C 78.954108,124.02743 78.90387,124.42047 78.839894,124.74954 C 78.775918,125.07861 78.689099,125.41678 78.579355,125.76414 C 78.396531,125.72756 78.18176,125.68642 77.934959,125.64074 C 77.688159,125.59505 77.391121,125.57221 77.043763,125.57221 C 76.641616,125.57221 76.280602,125.61334 75.960643,125.69561 C 75.640763,125.77788 75.366567,125.93322 75.138058,126.16173 C 74.909548,126.39024 74.731276,126.71021 74.603324,127.12146 C 74.475372,127.53279 74.411396,128.05834 74.411396,128.69819 L 74.411396,129.60304 L 78.003576,129.60304 C 78.058365,129.96869 78.08576,130.34344 78.08576,130.7273 C 78.08576,131.07474 78.058365,131.41283 78.003576,131.7419 L 74.411396,131.7419 L 74.411396,143.6701 C 74.210281,143.7066 73.986323,143.73408 73.739523,143.75237 C 73.492805,143.77057 73.268848,143.77976 73.067815,143.77976 C 72.8667,143.77976 72.638107,143.77057 72.382286,143.75237 C 72.126299,143.73408 71.897789,143.7066 71.696757,143.6701 L 71.696757,131.7419 L 71.69675,131.74189 z"
   style="fill:#ffffff;fill-rule:nonzero" /><rect
   id="_42945552"
   class="fil2"
   x="3.3861394"
   y="35.6045"
   width="28.1077"
   height="27.625099"
   rx="6.0472698"
   ry="6.0472698"
   style="fill:#1f1a17" /><path
   style="fill:#da251d;fill-rule:nonzero"
   d="M 22.52147,40.077 C 22.722502,40.040419 22.94646,40.013024 23.19326,39.994733 C 23.44006,39.976442 23.663935,39.967338 23.86505,39.967338 C 24.066165,39.967338 24.29004,39.976442 24.53684,39.994733 C 24.78364,40.013024 25.007598,40.040419 25.208713,40.077 L 25.208713,55.9264 C 25.208713,56.438209 25.254398,56.840356 25.345769,57.13292 C 25.437222,57.425406 25.560623,57.649281 25.71597,57.80471 C 25.8714,57.960057 26.054141,58.060614 26.26436,58.106383 C 26.474579,58.152068 26.698537,58.174911 26.936233,58.174911 C 27.100684,58.174911 27.288143,58.165724 27.498362,58.147434 C 27.708581,58.129226 27.886771,58.101748 28.033096,58.06525 C 28.197547,58.705011 28.279814,59.39964 28.279814,60.14915 C 28.02391,60.240603 27.713133,60.300028 27.347484,60.327422 C 26.981918,60.354899 26.643747,60.368555 26.332974,60.368555 C 25.802792,60.368555 25.309194,60.304579 24.852174,60.176627 C 24.395237,60.048675 23.993007,59.838373 23.645734,59.54597 C 23.298376,59.253484 23.024181,58.860441 22.823066,58.36684 C 22.621951,57.873239 22.521476,57.26087 22.521476,56.52958 L 22.521476,40.07708 L 22.52147,40.077 z"
   class="fil0"
   id="_42945224" /><path
   style="fill:#da251d;fill-rule:nonzero"
   d="M 14.46575,46.1096 C 14.666865,46.073019 14.890906,46.045376 15.13754,46.027333 C 15.384175,46.009208 15.608298,45.999938 15.80933,45.999938 C 16.010445,45.999938 16.234403,46.009042 16.481203,46.027333 C 16.728003,46.045624 16.951878,46.073019 17.152993,46.1096 L 17.149931,55.92633 C 17.149848,56.437808 17.195864,56.840534 17.28707,57.13285 C 17.378275,57.425088 17.501841,57.649211 17.657271,57.80464 C 17.812618,57.959987 17.995442,58.060544 18.205661,58.106313 C 18.41588,58.151998 18.639838,58.174841 18.877451,58.174841 C 19.041985,58.174841 19.229361,58.165654 19.439663,58.147364 C 19.649799,58.129156 19.828072,58.101678 19.974314,58.06518 C 20.138848,58.704941 20.221114,59.39957 20.221114,60.14908 C 19.96521,60.240533 19.654433,60.299958 19.288784,60.327352 C 18.923135,60.354829 18.584964,60.368485 18.274184,60.368485 C 17.744084,60.368485 17.250484,60.304509 16.793464,60.176557 C 16.336445,60.048605 15.934297,59.838303 15.586944,59.5459 C 15.239586,59.253414 14.965391,58.860371 14.764359,58.36677 C 14.563244,57.873169 14.462521,57.2608 14.462686,56.52951 L 14.465748,46.10961 L 14.46575,46.1096 z"
   class="fil0"
   id="_42944448" /><path
   style="fill:#da251d;fill-rule:nonzero"
   d="M 6.4071064,52.14 C 6.6082214,52.103336 6.8324276,52.07561 7.0789796,52.05765 C 7.3253668,52.039691 7.5496548,52.030256 7.75077,52.030256 C 7.951802,52.030256 8.1757602,52.03936 8.4225602,52.05765 C 8.6693604,52.075941 8.8933184,52.103336 9.0943506,52.14 L 9.0912886,55.92634 C 9.0908746,56.437487 9.1373046,56.840627 9.2284276,57.13286 C 9.3194666,57.425015 9.4431986,57.649221 9.5985458,57.80465 C 9.7539758,57.959997 9.9367998,58.060554 10.146936,58.106323 C 10.357238,58.152008 10.581195,58.174851 10.818809,58.174851 C 10.983343,58.174851 11.170719,58.165664 11.380938,58.147374 C 11.591157,58.129166 11.769429,58.101688 11.915672,58.06519 C 12.080206,58.704951 12.162472,59.39958 12.162472,60.14909 C 11.906485,60.240543 11.595708,60.299968 11.23006,60.327362 C 10.864494,60.354839 10.526323,60.368495 10.21555,60.368495 C 9.6853678,60.368495 9.1918496,60.304519 8.7347494,60.176567 C 8.2778122,60.048615 7.875582,59.838313 7.5283088,59.54591 C 7.1809506,59.253424 6.9067556,58.860381 6.7056404,58.36678 C 6.5045254,57.873179 6.4034714,57.26081 6.4040504,56.52952 L 6.4071124,52.14 L 6.4071064,52.14 z"
   class="fil0"
   id="_42933912" /><path
   id="_42932368"
   class="fil1"
   d="M 34.56675,40.2963 C 34.841028,40.259801 35.16546,40.22322 35.540213,40.186639 C 35.914966,40.150058 36.308009,40.118111 36.719343,40.090716 C 37.130677,40.063239 37.541928,40.040396 37.953343,40.022105 C 38.364594,40.003815 38.76219,39.994711 39.146133,39.994711 C 40.151543,39.994711 41.106713,40.095269 42.011653,40.296301 C 42.916505,40.497416 43.711693,40.844774 44.397223,41.338291 C 45.082752,41.831892 45.626593,42.485471 46.028823,43.298871 C 46.43097,44.112352 46.632003,45.131581 46.632003,46.356401 C 46.632003,47.636001 46.417232,48.700841 45.987607,49.550901 C 45.558065,50.400964 44.991384,51.081861 44.287567,51.593751 C 43.583747,52.105643 42.784007,52.466656 41.888177,52.676871 C 40.992512,52.88709 40.078387,52.992282 39.146147,52.992282 C 38.798789,52.992282 38.492565,52.987647 38.227473,52.978543 C 37.962465,52.969439 37.674531,52.946596 37.363754,52.909932 L 37.363754,60.039422 C 36.925025,60.094294 36.458902,60.121689 35.965304,60.121689 C 35.745898,60.121689 35.512837,60.117137 35.266036,60.10795 C 35.019318,60.098846 34.786174,60.076004 34.566768,60.039422 L 34.566768,40.296322 L 34.56675,40.2963 z M 37.36374,50.4695 C 37.656226,50.506081 37.912213,50.533476 38.131536,50.551767 C 38.350942,50.570058 38.670822,50.579162 39.09126,50.579162 C 39.657941,50.579162 40.22007,50.51982 40.77765,50.400972 C 41.335227,50.282124 41.83338,50.067353 42.27211,49.756576 C 42.710839,49.445799 43.062749,49.020809 43.32784,48.481526 C 43.592848,47.94224 43.725435,47.242976 43.725435,46.383806 C 43.725435,45.634301 43.611139,45.003646 43.382629,44.491756 C 43.154119,43.979864 42.838791,43.568613 42.436643,43.257836 C 42.034496,42.947059 41.549999,42.727654 40.983313,42.599702 C 40.416632,42.47175 39.804263,42.407774 39.146133,42.407774 C 38.469708,42.407774 37.875553,42.435168 37.363743,42.49004 L 37.363743,50.46951 L 37.36374,50.4695 z M 49.81294,39.9398 C 50.014055,39.903219 50.23793,39.875824 50.48473,39.857533 C 50.73153,39.839243 50.955405,39.830139 51.15652,39.830139 C 51.357635,39.830139 51.581593,39.839242 51.82831,39.857533 C 52.07511,39.875824 52.299068,39.903219 52.500183,39.9398 L 52.500183,55.7892 C 52.500183,56.301092 52.545868,56.703239 52.637322,56.99572 C 52.728693,57.288206 52.852093,57.512164 53.00744,57.66751 C 53.16287,57.82294 53.345694,57.923414 53.55583,57.969183 C 53.766132,58.014868 53.990007,58.037711 54.227703,58.037711 C 54.392154,58.037711 54.579613,58.028524 54.789832,58.010234 C 55.000051,57.992026 55.178323,57.964548 55.324566,57.92805 C 55.489017,58.567894 55.571366,59.26253 55.571366,60.01203 C 55.315379,60.103401 55.004602,60.162825 54.638954,60.19022 C 54.273388,60.217697 53.935217,60.231353 53.624444,60.231353 C 53.094262,60.231353 52.600664,60.167377 52.143644,60.039425 C 51.686707,59.911473 51.284477,59.701254 50.937204,59.408768 C 50.589846,59.116282 50.315651,58.723239 50.114536,58.229638 C 49.913421,57.73612 49.812946,57.123668 49.812946,56.392458 L 49.812946,39.939858 L 49.81294,39.9398 z M 57.87467,45.97242 C 58.075702,45.935921 58.304295,45.908444 58.560199,45.890153 C 58.816103,45.871863 59.035509,45.862759 59.218251,45.862759 C 59.419366,45.862759 59.647876,45.871862 59.90378,45.890153 C 60.159767,45.908444 60.388277,45.935921 60.589309,45.97242 L 60.589309,53.67777 C 60.589309,54.555227 60.671576,55.28189 60.836109,55.85767 C 61.000643,56.433538 61.247443,56.88592 61.57651,57.21499 C 61.905577,57.544057 62.307725,57.772567 62.78303,57.900519 C 63.258257,58.028471 63.80673,58.09253 64.42828,58.09253 C 65.36061,58.09253 66.1558,57.991972 66.81385,57.790857 L 66.81385,45.972457 C 67.014965,45.935958 67.238923,45.908481 67.485723,45.89019 C 67.732523,45.8719 67.956398,45.862796 68.157513,45.862796 C 68.358628,45.862796 68.582586,45.871899 68.829386,45.89019 C 69.076104,45.908481 69.300061,45.935958 69.501094,45.972457 L 69.501094,59.600657 C 68.861333,59.783481 68.098094,59.957119 67.211524,60.121653 C 66.32488,60.286187 65.406284,60.368453 64.455664,60.368453 C 63.559916,60.368453 62.714484,60.290738 61.919214,60.135391 C 61.124023,59.979961 60.424834,59.664633 59.821494,59.189405 C 59.218232,58.714012 58.743004,58.046775 58.395644,57.187605 C 58.048286,56.328438 57.874648,55.195075 57.874648,53.787435 L 57.874648,45.972415 L 57.87467,45.97242 z M 74.73867,48.11127 L 72.4352,48.11127 C 72.36212,47.818784 72.325539,47.462322 72.325539,47.04188 C 72.325539,46.639733 72.36212,46.283188 72.4352,45.97241 L 74.73867,45.97241 L 74.73867,44.985291 C 74.73867,43.248581 75.172764,41.927841 76.04112,41.022911 C 76.909473,40.118059 78.17534,39.665591 79.83897,39.665591 C 80.295989,39.665591 80.698137,39.688434 81.04549,39.734202 C 81.392765,39.779887 81.721832,39.848415 82.032609,39.939786 C 81.996028,40.396805 81.94579,40.789849 81.881814,41.118916 C 81.817838,41.447983 81.731019,41.786154 81.621275,42.133516 C 81.438451,42.096934 81.22368,42.055801 80.976879,42.010116 C 80.730079,41.96443 80.433041,41.941588 80.085683,41.941588 C 79.683536,41.941588 79.322522,41.982721 79.002563,42.064905 C 78.682683,42.147172 78.408487,42.302601 78.179978,42.531111 C 77.951468,42.759621 77.773196,43.079501 77.645244,43.490835 C 77.517292,43.902169 77.453316,44.427717 77.453316,45.067565 L 77.453316,45.972417 L 81.045496,45.972417 C 81.100285,46.338066 81.12768,46.712818 81.12768,47.096677 C 81.12768,47.444035 81.100285,47.782206 81.045496,48.111277 L 77.453316,48.111277 L 77.453316,60.039377 C 77.252201,60.075958 77.028243,60.103353 76.781443,60.121644 C 76.534725,60.139934 76.310768,60.149038 76.109653,60.149038 C 75.908621,60.149038 75.680028,60.139934 75.424207,60.121644 C 75.16822,60.103353 74.93971,60.075958 74.738678,60.039377 L 74.738678,48.111277 L 74.73867,48.11127 z"
   style="fill:#1f1a17;fill-rule:nonzero" /><path
   id="_42946424"
   class="fil2"
   d="M 7.58849,77.4906 L 31.87469,77.4906 L 31.87469,105.1157 L 7.58849,105.1157 C 5.48663,105.1157 3.76697,103.39596 3.76697,101.2941 L 3.76697,81.3121 C 3.76697,79.21024 5.48663,77.49058 7.58849,77.49058 L 7.58849,77.4906 z"
   style="fill:#1f1a17" /><path
   style="fill:#da251d;fill-rule:nonzero"
   d="M 22.902156,81.9631 C 23.103271,81.926519 23.327146,81.899124 23.574029,81.880833 C 23.820829,81.862543 24.044704,81.853438 24.245819,81.853438 C 24.446851,81.853438 24.670809,81.862542 24.917609,81.880833 C 25.164409,81.899124 25.388367,81.926519 25.589399,81.9631 L 25.589399,97.8124 C 25.589399,98.324292 25.635084,98.726439 25.726538,99.01901 C 25.817909,99.311413 25.941309,99.535371 26.096739,99.690718 C 26.252086,99.846148 26.43491,99.946705 26.645129,99.992391 C 26.855348,100.03808 27.079306,100.06092 27.316919,100.06092 C 27.481453,100.06092 27.668829,100.05182 27.879131,100.03352 C 28.089267,100.01523 28.26754,99.987839 28.413782,99.951258 C 28.578316,100.5911 28.660582,101.28574 28.660582,102.03524 C 28.404678,102.12669 28.093901,102.18612 27.728252,102.21351 C 27.362603,102.2409 27.024432,102.25464 26.713652,102.25464 C 26.183552,102.25464 25.689952,102.19067 25.232932,102.06271 C 24.775913,101.93476 24.373765,101.72446 24.026412,101.43197 C 23.679054,101.13949 23.404859,100.74645 23.203827,100.25292 C 23.002712,99.759324 22.902154,99.146955 22.902154,98.415665 L 22.902154,81.963165 L 22.902156,81.9631 z"
   class="fil0"
   id="_42920288" /><path
   style="fill:#da251d;fill-rule:nonzero"
   d="M 14.8466,87.9958 C 15.047715,87.959136 15.271756,87.931576 15.51839,87.91345 C 15.765025,87.895408 15.989065,87.886056 16.19018,87.886056 C 16.391295,87.886056 16.615253,87.89516 16.86197,87.91345 C 17.10877,87.931741 17.332728,87.959136 17.533843,87.9958 L 17.530781,97.81245 C 17.530698,98.323928 17.576632,98.726654 17.66792,99.01906 C 17.759042,99.311298 17.882691,99.535421 18.038038,99.690768 C 18.193468,99.846198 18.376292,99.946755 18.586428,99.992441 C 18.79673,100.03813 19.020687,100.06097 19.258301,100.06097 C 19.422835,100.06097 19.610211,100.05187 19.82043,100.03357 C 20.030649,100.01528 20.208921,99.987889 20.355164,99.951308 C 20.519698,100.59115 20.601964,101.28579 20.601964,102.03529 C 20.345977,102.12674 20.0352,102.18617 19.669552,102.21356 C 19.303986,102.24095 18.965815,102.25469 18.655042,102.25469 C 18.12486,102.25469 17.631342,102.19072 17.174242,102.06276 C 16.717305,101.93481 16.315075,101.72451 15.967802,101.43202 C 15.620444,101.13954 15.346249,100.7465 15.145134,100.25297 C 14.944019,99.759374 14.843379,99.147005 14.843544,98.415715 L 14.846606,87.995815 L 14.8466,87.9958 z"
   class="fil0"
   id="_42920080" /><path
   style="fill:#da251d;fill-rule:nonzero"
   d="M 6.7878365,94.0261 C 6.9889515,93.989519 7.2131575,93.961793 7.4596265,93.943833 C 7.7060955,93.925873 7.9303015,93.916438 8.1314165,93.916438 C 8.3325315,93.916438 8.5564895,93.925542 8.8032895,93.943833 C 9.0500075,93.962124 9.2739645,93.989519 9.4750795,94.0261 L 9.4720175,97.81244 C 9.4716035,98.323669 9.5180335,98.72681 9.6090735,99.01905 C 9.7001125,99.311122 9.8239275,99.535411 9.9792745,99.690758 C 10.134704,99.846188 10.317445,99.946745 10.527664,99.992431 C 10.737883,100.03812 10.961841,100.06096 11.199454,100.06096 C 11.363988,100.06096 11.551364,100.05186 11.761666,100.03356 C 11.971885,100.01527 12.150075,99.987879 12.2964,99.951298 C 12.460851,100.59114 12.543118,101.28578 12.543118,102.03528 C 12.287214,102.12673 11.976437,102.18616 11.610788,102.21355 C 11.245222,102.24094 10.907051,102.25468 10.596278,102.25468 C 10.066096,102.25468 9.5724985,102.19071 9.1154785,102.06275 C 8.6585415,101.9348 8.2563115,101.7245 7.9090385,101.43201 C 7.5616805,101.13953 7.2874855,100.74649 7.0863705,100.25296 C 6.8852555,99.759364 6.7842015,99.146995 6.7847805,98.415705 L 6.7878425,94.026105 L 6.7878365,94.0261 z"
   class="fil0"
   id="_42919040" /><path
   id="_42925536"
   class="fil1"
   d="M 34.9476,82.1825 C 35.221795,82.146001 35.54631,82.10942 35.921063,82.072839 C 36.295816,82.036258 36.688859,82.004228 37.100113,81.976833 C 37.51153,81.949439 37.922781,81.926596 38.334113,81.908305 C 38.745447,81.890015 39.143042,81.880911 39.526903,81.880911 C 40.532393,81.880911 41.487483,81.981386 42.392423,82.182501 C 43.297275,82.383616 44.092553,82.730891 44.777993,83.224491 C 45.463605,83.718092 46.007443,84.371671 46.409593,85.185071 C 46.81174,85.998552 47.012855,87.017781 47.012855,88.242521 C 47.012855,89.522211 46.798084,90.587041 46.368459,91.437101 C 45.938917,92.287164 45.372153,92.968061 44.668329,93.479951 C 43.964592,93.991843 43.164769,94.352856 42.269019,94.563071 C 41.373271,94.77329 40.459229,94.8784 39.526899,94.8784 C 39.179624,94.8784 38.873399,94.873848 38.608308,94.864744 C 38.3433,94.855557 38.055366,94.832714 37.744589,94.796133 L 37.744589,101.92562 C 37.30586,101.9805 36.839654,102.00789 36.346139,102.00789 C 36.126733,102.00789 35.893672,102.00334 35.646871,101.99415 C 35.400071,101.98505 35.167009,101.96212 34.947603,101.92562 L 34.947603,82.182523 L 34.9476,82.1825 z M 37.74459,92.3557 C 38.037076,92.392281 38.29298,92.419676 38.512303,92.437967 C 38.731709,92.456257 39.051672,92.465362 39.47211,92.465362 C 40.038791,92.465362 40.60092,92.40602 41.1585,92.287171 C 41.716077,92.168323 42.21415,91.953553 42.65296,91.642775 C 43.091689,91.331998 43.443599,90.907009 43.70869,90.367726 C 43.973698,89.82844 44.106285,89.129176 44.106285,88.270006 C 44.106285,87.520501 43.991989,86.889846 43.763479,86.377956 C 43.534969,85.866064 43.219641,85.454813 42.817411,85.144036 C 42.415264,84.833259 41.93085,84.613854 41.364171,84.485902 C 40.79749,84.35795 40.185041,84.293891 39.526911,84.293891 C 38.850569,84.293891 38.256411,84.321368 37.744601,84.37624 L 37.744601,92.35571 L 37.74459,92.3557 z M 50.19369,81.826 C 50.394805,81.789419 50.61868,81.762024 50.865563,81.743733 C 51.112363,81.725442 51.336238,81.716338 51.537353,81.716338 C 51.738385,81.716338 51.962343,81.725442 52.209143,81.743733 C 52.455943,81.762024 52.679901,81.789419 52.881016,81.826 L 52.881016,97.6754 C 52.881016,98.187209 52.926701,98.589356 53.018072,98.88192 C 53.109443,99.174406 53.232926,99.398364 53.388273,99.55371 C 53.54362,99.709057 53.726444,99.809614 53.936663,99.855383 C 54.146882,99.901068 54.37084,99.923911 54.608453,99.923911 C 54.772987,99.923911 54.960363,99.914724 55.170665,99.896434 C 55.380801,99.878226 55.559074,99.850748 55.705316,99.81425 C 55.86985,100.45409 55.952116,101.14864 55.952116,101.89815 C 55.696212,101.9896 55.385435,102.04903 55.019786,102.07642 C 54.654137,102.1039 54.316049,102.11756 54.005276,102.11756 C 53.475094,102.11756 52.981496,102.05358 52.524476,101.92563 C 52.067457,101.79768 51.665309,101.58737 51.317956,101.29497 C 50.970598,101.00248 50.696486,100.60944 50.495371,100.11584 C 50.294256,99.622239 50.193698,99.00987 50.193698,98.27858 L 50.193698,81.82608 L 50.19369,81.826 z M 58.25551,87.85862 C 58.456542,87.822039 58.685052,87.794644 58.941039,87.776353 C 59.196943,87.758062 59.416266,87.748958 59.599091,87.748958 C 59.800206,87.748958 60.028716,87.758062 60.28462,87.776353 C 60.540524,87.794644 60.769034,87.822039 60.970149,87.85862 L 60.970149,95.56389 C 60.970149,96.44143 61.052416,97.16809 61.216949,97.74388 C 61.381483,98.319748 61.628283,98.77213 61.957268,99.1012 C 62.286335,99.430267 62.688565,99.658777 63.163878,99.786729 C 63.639105,99.914681 64.187578,99.978657 64.809128,99.978657 C 65.741458,99.978657 66.536648,99.878182 67.194698,99.677067 L 67.194698,87.858667 C 67.395813,87.822086 67.619771,87.794691 67.866488,87.7764 C 68.113288,87.75811 68.337246,87.749005 68.538361,87.749005 C 68.739476,87.749005 68.963351,87.758109 69.210151,87.7764 C 69.456951,87.794691 69.680909,87.822086 69.881941,87.858667 L 69.881941,101.48687 C 69.24218,101.66969 68.478941,101.84333 67.592371,102.00786 C 66.705727,102.1724 65.787131,102.25466 64.836511,102.25466 C 63.940763,102.25466 63.095251,102.17695 62.300061,102.0216 C 61.50487,101.86617 60.805601,101.55084 60.202341,101.07553 C 59.599079,100.60022 59.123851,99.932983 58.776491,99.073813 C 58.429133,98.214564 58.255495,97.081203 58.255495,95.673563 L 58.255495,87.858633 L 58.25551,87.85862 z M 75.11941,89.99747 L 72.81602,89.99747 C 72.74294,89.704984 72.706359,89.34844 72.706359,88.928 C 72.706359,88.525853 72.74294,88.169391 72.81602,87.85861 L 75.11941,87.85861 L 75.11941,86.871491 C 75.11941,85.134781 75.553587,83.813961 76.42194,82.909111 C 77.290211,82.004176 78.55616,81.551791 80.2197,81.551791 C 80.676719,81.551791 81.078867,81.574634 81.42622,81.620319 C 81.773578,81.666004 82.102645,81.734615 82.413422,81.825986 C 82.376841,82.283005 82.326603,82.676049 82.262544,83.005116 C 82.198568,83.334183 82.111749,83.672354 82.002088,84.019716 C 81.819264,83.983135 81.604493,83.941918 81.357692,83.896233 C 81.110892,83.850548 80.813771,83.827705 80.466496,83.827705 C 80.064266,83.827705 79.703335,83.868838 79.383376,83.951105 C 79.063496,84.033372 78.789218,84.188719 78.560708,84.417311 C 78.332281,84.645738 78.154009,84.965701 78.026057,85.376952 C 77.898105,85.788369 77.834046,86.313916 77.834046,86.953762 L 77.834046,87.858614 L 81.426226,87.858614 C 81.481098,88.22418 81.508493,88.598933 81.508493,88.982874 C 81.508493,89.330232 81.481098,89.668403 81.426226,89.997474 L 77.834046,89.997474 L 77.834046,101.92557 C 77.633014,101.96207 77.409056,101.98955 77.162256,102.00784 C 76.915456,102.02613 76.691498,102.03524 76.490466,102.03524 C 76.289351,102.03524 76.060841,102.02613 75.804937,102.00784 C 75.549033,101.98955 75.320523,101.96207 75.119408,101.92557 L 75.119408,89.997474 L 75.11941,89.99747 z"
   style="fill:#1f1a17;fill-rule:nonzero" /><path
   id="_42924152"
   class="fil4 str0"
   d="M 7.58849,77.4906 L 82.14379,77.4906 C 84.24565,77.4906 85.96531,79.211 85.96531,81.31212 L 85.96531,101.29412 C 85.96531,103.39523 84.24491,105.11564 82.14379,105.11564 L 7.58849,105.11564 C 5.48738,105.11564 3.76697,103.39598 3.76697,101.29412 L 3.76697,81.31212 C 3.76697,79.21026 5.48663,77.4906 7.58849,77.4906 L 7.58849,77.4906 z"
   style="fill:none;stroke:#1f1a17;stroke-width:0.96833199" />
</svg>